<svg width="51" height="17" viewBox="0 0 51 17" fill="none" xmlns="http://www.w3.org/2000/svg">
<path d="M6.32 8.28C6.92 7.28 7.50667 6.26667 8.08 5.24C8.65333 4.21333 9.17333 3.18 9.64 2.14H12.44C11.6933 3.55333 10.9133 4.96 10.1 6.36C9.3 7.74667 8.44 9.14667 7.52 10.56V16H5V10.6C4.08 9.17333 3.21333 7.76 2.4 6.36C1.58667 4.96 0.806667 3.55333 0.06 2.14H3.02C3.48667 3.18 4 4.21333 4.56 5.24C5.12 6.26667 5.70667 7.28 6.32 8.28ZM22.0669 15.68C21.6002 15.8 20.9935 15.92 20.2469 16.04C19.5002 16.1733 18.6802 16.24 17.7869 16.24C16.9469 16.24 16.2402 16.12 15.6669 15.88C15.1069 15.64 14.6535 15.3067 14.3069 14.88C13.9735 14.4533 13.7335 13.9467 13.5869 13.36C13.4402 12.76 13.3669 12.1067 13.3669 11.4V5.54H15.7869V11.02C15.7869 12.14 15.9469 12.94 16.2669 13.42C16.6002 13.9 17.1735 14.14 17.9869 14.14C18.2802 14.14 18.5869 14.1267 18.9069 14.1C19.2402 14.0733 19.4869 14.04 19.6469 14V5.54H22.0669V15.68ZM29.057 8.96L31.277 5.54H33.817L30.377 10.48C31.097 11.4133 31.7837 12.36 32.437 13.32C33.1037 14.2667 33.6504 15.16 34.077 16H31.457C31.337 15.7467 31.177 15.46 30.977 15.14C30.7904 14.8067 30.5837 14.4667 30.357 14.12C30.1437 13.76 29.917 13.4067 29.677 13.06C29.437 12.7133 29.2037 12.3867 28.977 12.08C28.5104 12.68 28.0504 13.3467 27.597 14.08C27.157 14.8 26.7904 15.44 26.497 16H24.017C24.217 15.6 24.457 15.1733 24.737 14.72C25.017 14.2667 25.317 13.8067 25.637 13.34C25.957 12.86 26.2837 12.3867 26.617 11.92C26.9637 11.44 27.3037 10.9867 27.637 10.56L24.177 5.54H26.837L29.057 8.96ZM38.473 16H36.053V5.54H38.473V16ZM38.733 2.48C38.733 2.93333 38.5863 3.29333 38.293 3.56C37.9996 3.82667 37.653 3.96 37.253 3.96C36.8396 3.96 36.4863 3.82667 36.193 3.56C35.8996 3.29333 35.753 2.93333 35.753 2.48C35.753 2.01333 35.8996 1.64667 36.193 1.38C36.4863 1.11333 36.8396 0.979999 37.253 0.979999C37.653 0.979999 37.9996 1.11333 38.293 1.38C38.5863 1.64667 38.733 2.01333 38.733 2.48ZM41.7103 5.88C42.177 5.74667 42.7836 5.62 43.5303 5.5C44.277 5.38 45.1036 5.32 46.0103 5.32C46.8636 5.32 47.577 5.44 48.1503 5.68C48.7236 5.90667 49.177 6.23333 49.5103 6.66C49.857 7.07333 50.097 7.58 50.2303 8.18C50.377 8.76667 50.4503 9.41333 50.4503 10.12V16H48.0303V10.5C48.0303 9.94 47.9903 9.46667 47.9103 9.08C47.8436 8.68 47.7236 8.36 47.5503 8.12C47.3903 7.86667 47.1636 7.68667 46.8703 7.58C46.5903 7.46 46.2436 7.4 45.8303 7.4C45.5236 7.4 45.2036 7.42 44.8703 7.46C44.537 7.5 44.2903 7.53333 44.1303 7.56V16H41.7103V5.88Z" fill="white"/>
</svg>
